<svg xmlns="http://www.w3.org/2000/svg" id="icon-company" width="114" height="112" viewBox="0 0 114 112" fill="none">
  <path d="M75.4957 97.0468C96.2639 85.0036 103.365 58.3428 91.3877 37.5066C79.4105 16.6704 52.872 9.51659 32.1039 21.5598C11.3357 33.6029 4.23469 60.2638 16.2119 81.1C28.189 101.936 54.7275 109.09 75.4957 97.0468Z" fill="#FFE6A3" stroke="#FFD324" stroke-width="10"/>
  <path d="M41.3001 58.8528C40.2668 54.9797 40.4003 50.8858 41.6835 47.0888C42.9668 43.2918 45.3422 39.9623 48.5095 37.5213C51.6768 35.0803 55.4936 33.6375 59.4772 33.3752C63.4609 33.113 67.4326 34.0431 70.89 36.048C74.3473 38.0529 77.1352 41.0425 78.9009 44.6387C80.6666 48.235 81.3309 52.2764 80.8098 56.2518C80.2887 60.2273 78.6056 63.9583 75.9734 66.973C73.3411 69.9877 69.8779 72.1507 66.0217 73.1885C60.8509 74.574 55.3441 73.8427 50.7095 71.1551C46.0748 68.4676 42.6909 64.0432 41.3001 58.8528ZM78.4767 48.8476C77.5398 45.3356 75.587 42.1816 72.8654 39.7843C70.1437 37.387 66.7754 35.8541 63.1864 35.3795C59.5974 34.9049 55.9489 35.51 52.7022 37.1181C49.4556 38.7262 46.7566 41.2651 44.9466 44.4139C43.1366 47.5627 42.2969 51.1798 42.5336 54.8079C42.7704 58.436 44.073 61.9121 46.2767 64.7966C48.4804 67.6812 51.4862 69.8446 54.9141 71.0133C58.342 72.182 62.0379 72.3035 65.5346 71.3625C70.2195 70.0943 74.2126 67.0121 76.6386 62.7917C79.0647 58.5712 79.7256 53.5568 78.4767 48.8476Z" fill="#27120A"/>
  <path d="M86.0291 49.0946C85.6349 48.4521 85.0626 47.9391 84.3824 47.6184L84.5182 47.4158C84.6609 47.1972 84.7888 46.9693 84.9011 46.7335L85.0246 46.4524C85.0905 46.2911 85.1563 46.134 85.214 45.9686L85.2922 45.704L85.2922 45.6626C85.3334 45.5096 85.3745 45.3566 85.4033 45.2119C85.4322 45.0672 85.4445 45.0052 85.4651 44.8687C85.4857 44.7323 85.5063 44.5834 85.5186 44.4346C85.531 44.2857 85.5186 44.1989 85.5392 44.0872L85.5392 43.6737L85.5392 43.3264C85.5392 43.1941 85.5392 43.0618 85.5104 42.9377C85.4816 42.8137 85.4816 42.6896 85.461 42.5739C85.4404 42.4581 85.4239 42.3299 85.3992 42.2059L85.321 41.8337L85.2387 41.5112L85.1275 41.0977L85.0287 40.7959L84.8929 40.4113L84.8064 40.188L84.617 39.7373L84.617 39.7001C82.5586 35.0277 77.6555 30.7523 77.4497 30.5745C76.7457 29.9625 70.4059 24.6285 64.4242 25.2529C63.9822 25.2981 63.5445 25.3783 63.115 25.4927C62.1641 25.7449 60.8961 26.6381 59.5705 27.9736C59.1913 27.5651 58.7175 27.2569 58.1914 27.0764C55.9832 26.2907 53.6349 25.9821 51.2998 26.1708C49.6112 26.3219 47.9847 26.8844 46.5614 27.8096C45.1382 28.7348 43.9611 29.9946 43.1321 31.48L42.9304 31.8439C42.5234 31.6904 42.0869 31.6324 41.6542 31.6743C41.3813 31.7046 41.1139 31.7728 40.8597 31.8769C30.6953 36.0738 30.0613 44.5462 30.5883 49.2227C30.6377 49.6362 30.6912 50.0497 30.757 50.4094L30.8476 50.9222L30.8476 50.9718L30.9546 51.4886C31.1435 52.3333 31.6341 53.0792 32.3336 53.5851C33.033 54.0911 33.8928 54.322 34.7503 54.2342C35.59 54.1417 36.3694 53.7518 36.9487 53.1343C38.1716 51.8598 39.7796 51.0269 41.5225 50.765C42.162 50.6612 42.7582 50.374 43.2392 49.9381C43.9849 50.2538 44.7958 50.3829 45.6022 50.3143C47.6802 50.1696 49.7667 50.4193 51.7527 51.0503C52.2497 51.2041 52.776 51.2374 53.2883 51.1475C53.8006 51.0577 54.2845 50.8473 54.7003 50.5335L54.7579 50.6327C54.7775 50.67 54.7995 50.7059 54.8238 50.7402C54.9185 50.8932 55.0173 51.0421 55.1202 51.1951L55.1943 51.3026C55.2931 51.4432 55.396 51.5837 55.5113 51.7161L55.5936 51.8318C55.6966 51.9642 55.8036 52.0923 55.9395 52.2453L56.0341 52.3611L56.3882 52.7746C56.4252 52.8159 56.4664 52.8573 56.4993 52.8986L56.8616 53.2666L57.0057 53.4114L57.3268 53.7132L57.5409 53.9117C57.7262 54.0729 57.9155 54.2342 58.109 54.3913C58.3025 54.5485 58.4919 54.6973 58.6812 54.842C59.232 55.263 59.8051 55.6536 60.3979 56.0122C60.5873 56.128 60.7808 56.2355 60.9702 56.343C61.3489 56.5539 61.7359 56.7565 62.1229 56.9219C62.3164 57.0087 62.5057 57.0914 62.6951 57.17C63.0533 57.3147 63.4197 57.447 63.7861 57.5834C63.6158 58.034 63.5457 58.5166 63.5805 58.9972C63.6154 59.4779 63.7544 59.9451 63.9878 60.3662C64.1936 60.7384 64.3995 61.127 64.5847 61.5529L64.6218 61.6356C64.6959 61.7928 64.7659 61.954 64.84 62.1318L64.9264 62.3468C64.9882 62.4915 65.0458 62.6445 65.1034 62.7975L65.1858 63.0208C65.2681 63.2441 65.3463 63.4756 65.4081 63.6865L65.4328 63.7651C65.4987 63.9842 65.5645 64.2116 65.6222 64.4391L65.6757 64.6706C65.721 64.8526 65.7621 65.0428 65.7992 65.233L65.8445 65.4645C65.8939 65.725 65.9391 65.9896 65.9721 66.2584C66.0824 67.1229 66.4175 67.9429 66.9436 68.636C66.568 69.2256 66.3826 69.9172 66.4126 70.6166C66.4126 70.8026 66.4126 71.0301 66.4126 71.2203C66.404 71.5591 66.3779 71.8972 66.3344 72.2333C66.3138 72.3863 66.285 72.5476 66.2561 72.7047L66.2561 72.7791C66.2232 72.9404 66.1862 73.1099 66.1326 73.2918L66.1326 73.3373C66.0874 73.5027 66.0338 73.6722 65.9762 73.8294L65.9762 73.8873C65.9144 74.0526 65.8445 74.218 65.7704 74.3876L65.7292 74.4827C65.651 74.6522 65.5645 74.8217 65.4616 75.0078L65.4204 75.074C65.301 75.2848 65.1981 75.4502 65.0911 75.6032C64.6358 76.2579 64.4152 77.0483 64.4653 77.8452C64.5154 78.6421 64.8333 79.3984 65.3669 79.9903C65.5746 80.2229 65.8128 80.426 66.075 80.594C66.6321 80.9524 67.2784 81.1459 67.9399 81.1522C68.1334 81.1522 68.3516 81.1522 68.541 81.1522L68.7097 81.1522C68.895 81.1522 69.0803 81.1522 69.3026 81.1522L69.3849 81.1522C69.6154 81.1522 69.8542 81.1233 70.0971 81.0985L70.3894 81.0695C70.5458 81.0695 70.7064 81.0365 70.867 81.0158L70.974 81.0158C71.5215 80.9413 72.0732 80.8462 72.6207 80.7222L72.1637 78.6837L72.6619 80.7139C76.2888 79.887 79.224 78.171 81.3936 75.5536C83.2734 73.1982 84.5118 70.3927 84.9875 67.412C85.0593 67.0309 85.0525 66.6391 84.9675 66.2607C84.8826 65.8824 84.7212 65.5255 84.4935 65.2123C84.6253 65.0965 84.757 64.989 84.9052 64.8691C85.0534 64.7492 85.2428 64.5466 85.4157 64.3729L85.5598 64.2199L85.8603 63.8891L86.0003 63.7237L86.0373 63.6783L86.2885 63.3681L86.449 63.1531L86.6631 62.8513L86.8154 62.6239L87.013 62.3055L87.1447 62.0781L87.3094 61.7721C87.3094 61.7721 87.4 61.6025 87.4329 61.5281C87.4659 61.4537 87.5317 61.3172 87.5852 61.2015L87.6058 61.156L87.6799 60.9823C87.754 60.8086 87.8199 60.6308 87.8858 60.453L87.9516 60.2422L87.9846 60.1429L88.0546 59.9155L88.1245 59.6509L88.1245 59.5806L88.1822 59.3532L88.2439 59.0596L88.2851 58.8198C88.2851 58.7164 88.3222 58.613 88.3345 58.5014L88.3633 58.2781L88.4004 57.9639L88.4004 57.7612L88.4004 57.4098L88.4004 57.2692C88.4786 53.9572 87.153 51.0007 86.0291 49.0946Z" fill="#4D2211"/>
  <path d="M58.2984 29.7182C56.6146 32.6126 53.0042 39.6998 54.0375 46.3776C54.0775 46.5894 54.0618 46.8081 53.992 47.012C53.9222 47.2159 53.8006 47.398 53.6394 47.5403C53.4781 47.6827 53.2827 47.7803 53.0724 47.8237C52.8622 47.8671 52.6442 47.8546 52.4402 47.7876C50.2016 47.0767 47.8496 46.7961 45.5075 46.9606C44.7877 47.0241 44.0704 46.8137 43.4978 46.371C42.9251 45.9284 42.539 45.2858 42.4158 44.5707C41.8889 41.6473 41.7901 36.7144 44.9888 31.2646C48.3769 25.4758 54.7003 26.7907 57.5985 27.7831C57.7844 27.8472 57.9537 27.9523 58.0939 28.0907C58.2341 28.229 58.3417 28.3972 58.4088 28.5827C58.4759 28.7683 58.5008 28.9665 58.4817 29.163C58.4626 29.3595 58.4 29.5492 58.2984 29.7182Z" fill="#DE9F2D"/>
  <path opacity="0.5" d="M56.4542 33.291L56.3801 33.2414C56.0178 33.0553 55.7008 33.5763 55.5238 33.8657C54.8692 34.9284 54.7828 36.2474 54.1447 37.3142C53.7865 37.9138 53.239 38.3645 52.8438 38.9351C52.3662 39.638 52.2674 40.4898 52.0986 41.3044C51.8722 42.4042 51.5264 43.4214 50.6166 44.1367C49.1551 45.2862 46.6027 45.5178 44.9107 44.8066C42.5065 43.7977 42.2842 41.0149 42.3748 38.4596C42.0457 40.4872 42.0596 42.5561 42.416 44.5792C42.5391 45.2943 42.9253 45.9369 43.4979 46.3795C44.0705 46.8222 44.7878 47.0326 45.5077 46.9691C47.8498 46.8046 50.2018 47.0852 52.4403 47.7961C52.6444 47.8631 52.8623 47.8756 53.0726 47.8322C53.2829 47.7888 53.4783 47.6912 53.6395 47.5488C53.8008 47.4065 53.9223 47.2244 53.9921 47.0205C54.0619 46.8166 54.0776 46.598 54.0377 46.3861C53.3131 41.6889 54.8775 36.7973 56.4542 33.291Z" fill="#99542B"/>
  <path d="M41.7159 32.5427C41.8588 32.4857 42.0151 32.4715 42.1659 32.502C42.3167 32.5325 42.4554 32.6063 42.5653 32.7144C42.6751 32.8226 42.7514 32.9604 42.7847 33.1112C42.8181 33.262 42.8072 33.4193 42.7533 33.564C41.7447 36.2062 40.242 41.5154 42.251 45.8983C42.5557 46.564 41.9917 47.3331 41.2712 47.4489C39.0736 47.7854 37.0477 48.8405 35.5077 50.4508C35.3297 50.6478 35.101 50.7915 34.8468 50.8661C34.5926 50.9407 34.3228 50.9432 34.0672 50.8735C33.8116 50.8038 33.5802 50.6644 33.3985 50.4709C33.2169 50.2774 33.092 50.0372 33.0377 49.7768C32.0784 45.3608 31.7738 36.6486 41.7159 32.5427Z" fill="#DE9F2D"/>
  <path opacity="0.5" d="M41.4195 38.5838C41.0902 38.5383 41.0079 38.7698 40.8514 39.204C40.6677 39.7299 40.5528 40.2775 40.5097 40.8331C40.3821 41.9702 40.4521 43.1321 40.2133 44.2485C39.8016 46.2416 37.7432 47.9699 35.8495 48.5405C34.4292 48.954 33.3012 48.6894 32.7002 47.7136C32.7759 48.4085 32.89 49.0987 33.0419 49.781C33.0962 50.0414 33.2211 50.2816 33.4028 50.4751C33.5845 50.6686 33.8159 50.8079 34.0714 50.8777C34.327 50.9474 34.5968 50.9448 34.851 50.8703C35.1052 50.7957 35.3339 50.6519 35.5119 50.455C37.0519 48.8447 39.0778 47.7895 41.2755 47.4531C41.9959 47.3373 42.5599 46.5682 42.2552 45.9025C41.1725 43.5415 41.1108 40.9324 41.4195 38.5838Z" fill="#99542B"/>
  <path d="M82.851 45.0176C86.3215 39.6918 76.1654 30.8887 76.1654 30.8887C76.1654 30.8887 69.1668 24.8022 63.7203 26.2452C60.2869 27.1549 48.4882 42.5573 59.5006 51.5217C70.513 60.4861 80.2163 49.0656 82.851 45.0176Z" fill="#DE9F2D"/>
  <path opacity="0.5" d="M81.3071 36.6567C81.373 36.8015 81.4389 36.9503 81.4965 37.1033C82.7068 40.3078 81.7394 43.7605 79.5987 46.3117C78.6888 47.4033 77.6185 48.346 76.2229 48.714C75.3254 48.9539 74.3827 48.9208 73.477 49.1275C72.4643 49.4062 71.4946 49.8236 70.5952 50.368C67.5735 51.9558 63.5596 52.2659 60.5544 50.4465C59.3463 49.69 58.3469 48.6407 57.6479 47.395C57.2493 46.6797 56.9158 45.9296 56.6517 45.1539C56.5158 44.7735 56.207 43.839 55.7542 43.7191L55.0091 43.8721C55.3878 46.6094 56.7134 49.2474 59.4799 51.5216C70.4841 60.4901 80.1956 49.0655 82.8303 45.0175C84.4482 42.5861 83.1597 39.3816 81.3071 36.6567Z" fill="#99542B"/>
  <path d="M82.1388 48.375C79.6193 51.2694 73.6541 55.8632 66.9437 56.2312C66.7292 56.2351 66.5194 56.295 66.3349 56.405C66.1505 56.5151 65.9978 56.6715 65.8918 56.8589C65.7859 57.0463 65.7303 57.2581 65.7307 57.4736C65.7311 57.6891 65.7873 57.9008 65.8939 58.0878C67.0481 60.1427 67.8039 62.3989 68.1211 64.7367C68.2083 65.4571 68.5619 66.1184 69.1116 66.5893C69.6614 67.0603 70.3672 67.3067 71.0893 67.2796C74.0452 67.1928 78.8618 66.279 83.522 62.0077C88.4622 57.4882 85.8809 51.5423 84.3166 48.9001C83.8843 48.1724 82.6863 47.7175 82.1388 48.375Z" fill="#DE9F2D"/>
  <path opacity="0.5" d="M85.1069 58.5342C84.4853 59.6755 83.6908 60.8332 82.5545 61.5072C81.5048 62.1316 80.3726 62.0861 79.1994 62.082C78.7404 62.0588 78.2819 62.1359 77.8554 62.308C77.429 62.48 77.0448 62.7429 76.7293 63.0785C76.2795 63.5258 75.7904 63.9313 75.2678 64.29C74.2798 64.9516 73.0983 65.5304 71.8838 65.4891C69.9325 65.4395 69.3438 63.6946 68.6233 62.1812C68.2854 61.3248 67.825 60.5225 67.2565 59.7995C67.0747 59.5821 66.8226 59.4358 66.5443 59.386C67.3462 61.0841 67.8782 62.8979 68.1211 64.7613C68.2083 65.4818 68.5618 66.143 69.1116 66.614C69.6613 67.085 70.3672 67.3314 71.0893 67.3043C74.0451 67.2175 78.8618 66.3037 83.522 62.0323C84.4403 61.2403 85.1743 60.2554 85.6723 59.1473C86.1702 58.0392 86.4199 56.8348 86.4037 55.6191C86.0641 56.6298 85.6299 57.6058 85.1069 58.5342Z" fill="#99542B"/>
  <path d="M82.9703 65.717C83.001 65.5631 82.9858 65.4036 82.9267 65.2584C82.8676 65.1132 82.7673 64.9887 82.6381 64.9004C82.509 64.8122 82.3568 64.7641 82.2006 64.7623C82.0444 64.7604 81.8911 64.8048 81.7599 64.89C79.3969 66.4282 74.5391 69.0249 69.8501 67.9415C69.1379 67.7803 68.508 68.4956 68.5409 69.2233C68.6693 71.4505 68.063 73.6581 66.816 75.5042C66.6647 75.719 66.5749 75.9713 66.5564 76.2338C66.5379 76.4962 66.5914 76.7588 66.7111 76.9928C66.8308 77.2269 67.0121 77.4235 67.2353 77.5612C67.4584 77.699 67.715 77.7727 67.9769 77.7743C72.4807 77.8446 81.0354 76.3353 82.9703 65.717Z" fill="#DE9F2D"/>
  <path opacity="0.5" d="M75.8649 75.3387C74.3499 75.8804 71.46 76.4717 70.3484 74.8632C69.7144 73.9494 69.8791 72.6882 69.7968 71.6421C69.7309 70.8689 69.5292 69.7608 68.5617 69.9882C68.537 71.9625 67.9326 73.8856 66.8244 75.5165C66.6731 75.7313 66.5834 75.9836 66.5649 76.2461C66.5464 76.5085 66.5999 76.7711 66.7196 77.0051C66.8393 77.2391 67.0206 77.4357 67.2437 77.5735C67.4669 77.7113 67.7234 77.785 67.9854 77.7865C71.1677 77.8238 76.3672 77.0753 79.8294 72.895C78.6699 73.949 77.3256 74.7776 75.8649 75.3387Z" fill="#99542B"/>
  <g style="mix-blend-mode:overlay" opacity="0.2">
    <path d="M80.1174 37.9554C80.0589 37.6613 79.9272 37.3867 79.7346 37.1574C77.6762 34.5773 75.1855 31.6663 72.3573 29.9131C70.163 28.5527 66.2891 27.4322 63.8437 28.4659C58.2984 30.8187 55.0832 41.0566 57.8167 46.3079C60.6367 51.7287 69.6319 50.5709 73.9011 47.8419C76.1241 46.4195 79.2529 43.9427 80.2985 41.4122C80.5341 40.8606 80.6403 40.262 80.6089 39.6626C80.5775 39.0633 80.4094 38.4792 80.1174 37.9554Z" fill="#FCEE21"/>
  </g>
  <g style="mix-blend-mode:overlay" opacity="0.2">
    <path d="M83.8678 50.2897C83.8439 50.1992 83.8025 50.1143 83.7458 50.0399C83.6892 49.9655 83.6185 49.9031 83.5378 49.8562C83.4571 49.8094 83.368 49.779 83.2755 49.7668C83.1831 49.7546 83.0892 49.7609 82.9992 49.7852C82.8658 49.7649 82.7294 49.7851 82.6076 49.8433C82.4858 49.9016 82.3842 49.9951 82.3158 50.1119C81.0437 51.9808 78.7671 53.4198 76.8322 54.5403C75.7012 55.1876 74.5099 55.7222 73.2753 56.1364C72.2008 56.4961 70.8258 56.5954 69.8501 57.1784C67.3101 58.7042 69.5167 62.9093 71.8056 63.3807C73.4153 63.7156 74.8685 62.9672 76.0377 61.9252C76.4246 61.5779 76.8034 60.5524 77.2274 60.2423C78.1578 59.5601 78.6848 60.4697 79.8951 60.5442C80.4589 60.6227 81.0331 60.5275 81.5418 60.2713C85.0164 58.3361 84.8929 53.4901 83.8678 50.2897Z" fill="#FCEE21"/>
  </g>
  <g style="mix-blend-mode:overlay" opacity="0.2">
    <path d="M80.0763 66.9818C79.9075 67.081 79.7428 67.1927 79.5823 67.3084C78.1085 68.1726 76.4082 68.4703 74.7286 68.6688C73.6912 68.7887 72.4026 68.6688 71.6163 69.4958C70.5089 70.6618 70.9576 72.8037 72.1597 73.7423C73.6747 74.9166 75.6466 74.0235 77.0299 73.0972C78.5984 72.0429 81.2825 69.8266 81.3896 67.7839C81.409 67.6223 81.3817 67.4584 81.3109 67.3119C81.2401 67.1654 81.1288 67.0425 80.9902 66.9579C80.8517 66.8733 80.6919 66.8305 80.5298 66.8348C80.3677 66.839 80.2103 66.89 80.0763 66.9818Z" fill="#FCEE21"/>
  </g>
</svg>